[img]http://img826.imageshack.us/img826/4466/gijoetheriseofcobra.jpg[/img]

[b][size=200][color=black]PLOT[/color][/size][/b]

[code]An elite military unit comprised of special operatives known as G.I. Joe,
 operating out of The Pit, takes on an evil organization led by a notorious arms 
dealer. [/code]

[b][size=200][color=black]IMDB[/color][/size][/b]

[code]http://www.imdb.com/title/tt1046173/[/code]

[b][size=200][color=black]MOVIE INFO[/color][/size][/b]

[code]G.I. Joe Rise of Cobra [2009] BRRip x264 AAC-V3nom

Format                                   : MPEG-4
Format profile                           : Base Media / Version 2
Codec ID                                 : mp42
File size                                : 348 MiB
Duration                                 : 1h 57mn
Overall bit rate mode                    : Variable
Overall bit rate                         : 413 Kbps
Encoded date                             : UTC 2013-02-05 10:14:18
Tagged date                              : UTC 2013-02-05 11:05:43

Video
ID                                       : 1
Format                                   : AVC
Format/Info                              : Advanced Video Codec
Format profile                           : Main@L2.1
Format settings, CABAC                   : Yes
Format settings, ReFrames                : 4 frames
Codec ID                                 : avc1
Codec ID/Info                            : Advanced Video Coding
Duration                                 : 1h 57mn
Bit rate mode                            : Variable
Bit rate                                 : 315 Kbps
Width                                    : 640 pixels
Height                                   : 256 pixels
Display aspect ratio                     : 2.40:1
Original display aspect ratio            : 2.40:1
Frame rate mode                          : Variable
Frame rate                               : 23.976 fps
Minimum frame rate                       : 7.992 fps
Maximum frame rate                       : 23.981 fps
Color space                              : YUV
Chroma subsampling                       : 4:2:0
Bit depth                                : 8 bits
Scan type                                : Progressive
Bits/(Pixel*Frame)                       : 0.080
Stream size                              : 263 MiB (76%)
Writing library                          : x264 core 112

Audio
ID                                       : 2
Format                                   : AAC
Format/Info                              : Advanced Audio Codec
Format profile                           : LC
Codec ID                                 : 40
Duration                                 : 1h 57mn
Bit rate mode                            : Variable
Bit rate                                 : 96.0 Kbps
Maximum bit rate                         : 156 Kbps
Channel(s)                               : 2 channels
Channel positions                        : Front: L R
Sampling rate                            : 48.0 KHz
Compression mode                         : Lossy
Delay relative to video                  : 167ms
Stream size                              : 80.8 MiB (23%)
Encoded date                             : UTC 2013-02-05 10:14:18
Tagged date                              : UTC 2013-02-05 11:05:37[/code]

[b][size=200][color=black]SOURCE[/color][/size][/b]

[code]G.I. Joe Rise of Cobra (2009) 720p BrRip x264 - 750MB - YIFY(Thanks)[/code]

[b][size=200][color=black]SCREENSHOTS[/color][/size][/b]

[img]http://img259.imageshack.us/img259/5572/gijoeriseofcobra2009brr.jpg[/img]

[img]http://kastatic.com/i2/users/133df62bbf28e62494bb17fe11078f1a.gif[/img][img]http://kastatic.com/i2/users/133df62bbf28e62494bb17fe11078f1a.gif[/img]